<?xml version="1.0" encoding="UTF-8"?>
<!DOCTYPE svg PUBLIC "-//W3C//DTD SVG 1.1//EN" "http://www.w3.org/Graphics/SVG/1.1/DTD/svg11.dtd">
<!-- Creator: CorelDRAW X8 -->
<svg xmlns="http://www.w3.org/2000/svg" xml:space="preserve" width="150mm" height="53.087mm" version="1.1" style="shape-rendering:geometricPrecision; text-rendering:geometricPrecision; image-rendering:optimizeQuality; fill-rule:evenodd; clip-rule:evenodd"
viewBox="0 0 15000 5309"
 xmlns:xlink="http://www.w3.org/1999/xlink">
 <defs>
  <style type="text/css">
   <![CDATA[
    .fil1 {fill:white;fill-rule:nonzero}
    .fil0 {fill:white;fill-rule:nonzero}
   ]]>
  </style>
 </defs>
 <g id="Layer_x0020_1">
  <metadata id="CorelCorpID_0Corel-Layer"/>
  <g id="_1744016587120">
   <path class="fil0" d="M0 3301l272 -326c188,155 386,254 625,254 188,0 301,-75 301,-197l0 -6c0,-117 -71,-177 -421,-266 -421,-108 -693,-225 -693,-640l0 -6c0,-380 305,-631 732,-631 305,0 565,96 777,266l-239 347c-185,-128 -368,-206 -544,-206 -176,0 -269,81 -269,182l0 6c0,138 90,182 451,275 425,111 664,263 664,628l0 6c0,415 -317,648 -768,648 -317,0 -637,-110 -888,-334z"/>
   <path class="fil0" d="M1827 2813l0 -6c0,-457 350,-833 840,-833 302,0 490,101 640,269l-278 298c-102,-107 -203,-176 -365,-176 -227,0 -388,200 -388,436l0 6c0,245 158,443 406,443 153,0 257,-66 368,-171l266 269c-156,171 -335,293 -655,293 -481,0 -834,-370 -834,-828z"/>
   <path class="fil0" d="M3405 2813l0 -6c0,-460 370,-833 870,-833 496,0 863,367 863,827l0 6c0,461 -370,834 -869,834 -497,0 -864,-367 -864,-828zm1285 0l0 -6c0,-236 -170,-442 -421,-442 -260,0 -416,200 -416,436l0 6c0,237 170,443 422,443 260,0 415,-201 415,-437z"/>
   <path class="fil0" d="M5315 3041l0 -1038 455 0 0 894c0,215 101,326 275,326 173,0 284,-111 284,-326l0 -894 454 0 0 1602 -454 0 0 -227c-105,135 -239,257 -470,257 -343,0 -544,-227 -544,-594z"/>
   <path class="fil0" d="M7047 3151l0 -1557 454 0 0 409 377 0 0 389 -377 0 0 684c0,105 45,156 147,156 83,0 158,-21 224,-57l0 365c-96,56 -206,92 -359,92 -278,0 -466,-110 -466,-481z"/>
   <path class="fil0" d="M8078 3393l194 -299c174,126 356,192 505,192 132,0 192,-48 192,-120l0 -6c0,-99 -156,-131 -332,-185 -224,-66 -478,-171 -478,-481l0 -6c0,-326 263,-508 585,-508 204,0 425,68 598,185l-173 314c-159,-93 -317,-150 -434,-150 -110,0 -167,48 -167,111l0 6c0,89 153,131 326,191 224,75 484,182 484,475l0 6c0,356 -266,517 -613,517 -224,0 -475,-74 -687,-242z"/>
   <path class="fil0" d="M11579 1903c130,199 195,426 216,580l236 0c-19,-188 -96,-464 -255,-708 -189,-290 -436,-444 -713,-444l-1 0c-212,0 -409,95 -543,260 -140,175 -194,400 -146,618l230 -50c-32,-146 5,-303 99,-420 90,-112 218,-173 360,-173l1 0c245,0 416,184 516,337z"/>
   <path class="fil0" d="M13287 3550c-91,-127 -159,-280 -188,-426l-239 0c18,114 67,303 195,502 -80,135 -224,268 -377,347 0,0 0,0 0,0 0,0 0,0 0,0 -153,-79 -297,-212 -377,-347 128,-199 177,-388 195,-502l-239 0c-29,146 -96,299 -188,426l-40 55 28 63c100,217 330,436 574,543l47 21 0 0 0 0 48 -21c243,-107 473,-326 573,-543l28 -63 -40 -55z"/>
   <path class="fil0" d="M13777 1903c-130,199 -195,426 -216,580l-236 0c20,-188 96,-464 255,-708 189,-290 436,-444 713,-444l1 0c212,0 409,95 543,260 105,131 162,290 163,454l0 12c0,51 -6,102 -17,152l-230 -50c32,-146 -5,-303 -99,-420 -90,-112 -218,-173 -360,-173l-1 0c-245,0 -416,184 -516,337z"/>
   <path class="fil0" d="M12267 2483l237 0c-30,-272 -137,-510 -231,-720 -95,-210 -184,-408 -183,-606 2,-227 132,-459 347,-620 37,-29 145,-111 241,-199 96,88 204,170 241,199 216,161 345,393 347,620 1,198 -88,396 -183,606 -94,210 -201,448 -231,720l237 0c29,-225 120,-427 209,-624 105,-234 205,-455 203,-704 -3,-300 -167,-602 -441,-806 -32,-25 -200,-152 -296,-256l-86 -93 0 0 -86 93c-96,104 -264,231 -296,256 -274,204 -438,506 -441,806 -2,249 98,470 203,704 89,197 180,399 209,624z"/>
   <polygon class="fil0" points="11336,2916 14021,2916 14021,2691 11336,2691 "/>
   <path class="fil1" d="M742 5136l0 162 -630 0 0 -149 305 -323c64,-68 96,-130 96,-187 0,-73 -41,-109 -124,-109 -38,0 -78,7 -120,23 -41,15 -82,37 -122,65l-63 -144c36,-31 83,-56 140,-75 57,-18 115,-27 175,-27 95,0 171,22 228,68 57,46 85,108 85,185 0,52 -11,101 -33,146 -22,45 -59,96 -111,151l-204 214 378 0z"/>
   <polygon id="1" class="fil1" points="868,4383 1526,4383 1526,4534 1118,5298 903,5298 1309,4545 868,4545 "/>
   <path id="2" class="fil1" d="M2014 5165c20,0 40,-2 62,-4l-10 142c-25,4 -51,6 -76,6 -97,0 -167,-22 -212,-64 -44,-42 -67,-107 -67,-193l0 -244 -120 0 0 -147 120 0 0 -187 196 0 0 187 160 0 0 147 -160 0 0 242c0,77 36,115 107,115z"/>
   <path id="3" class="fil1" d="M2563 4645c76,0 133,23 170,67 37,45 56,112 56,202l0 384 -196 0 0 -375c0,-43 -8,-75 -24,-95 -16,-19 -41,-29 -75,-29 -41,0 -73,13 -98,39 -25,25 -37,60 -37,103l0 357 -196 0 0 -915 196 0 0 362c23,-33 51,-57 86,-74 35,-17 75,-26 118,-26z"/>
   <path id="4" class="fil1" d="M4107 5298l-220 0 -159 -292c-13,-22 -28,-38 -46,-48 -18,-10 -41,-15 -69,-15l-100 0 0 355 -200 0 0 -915 421 0c107,0 188,24 243,71 55,47 82,115 82,204 0,70 -19,128 -57,174 -39,47 -93,78 -163,92 47,13 88,47 120,103l148 271zm-403 -509c58,0 100,-10 126,-30 26,-20 39,-52 39,-95 0,-45 -13,-77 -39,-96 -26,-20 -68,-30 -126,-30l-194 0 0 251 194 0z"/>
   <path id="5" class="fil1" d="M4514 5309c-68,0 -127,-14 -178,-41 -51,-27 -91,-66 -118,-116 -28,-49 -42,-108 -42,-176 0,-67 14,-126 42,-175 27,-50 67,-89 118,-115 51,-27 110,-41 178,-41 67,0 126,14 178,41 51,26 90,65 118,115 27,49 41,108 41,175 0,68 -14,127 -41,176 -28,50 -67,89 -118,116 -52,27 -111,41 -178,41zm0 -150c95,0 142,-61 142,-183 0,-61 -12,-107 -36,-137 -25,-30 -60,-46 -106,-46 -95,0 -143,61 -143,183 0,122 48,183 143,183z"/>
   <path id="6" class="fil1" d="M5274 5309c-103,0 -185,-30 -245,-89 -60,-58 -90,-138 -90,-240 0,-66 15,-125 43,-176 29,-50 69,-89 121,-117 52,-28 112,-42 180,-42 47,0 92,8 135,22 44,14 79,33 106,58l-52 133c-25,-20 -53,-35 -83,-46 -30,-11 -59,-16 -87,-16 -51,0 -91,15 -119,45 -28,31 -42,76 -42,135 0,60 14,105 42,136 28,31 68,46 119,46 28,0 57,-5 87,-16 30,-11 58,-26 83,-46l52 135c-29,24 -65,43 -109,57 -45,14 -91,21 -141,21z"/>
   <path id="7" class="fil1" d="M6012 4645c76,0 132,23 170,67 37,45 55,112 55,202l0 384 -196 0 0 -375c0,-43 -8,-75 -24,-95 -16,-19 -40,-29 -74,-29 -41,0 -74,13 -98,39 -25,25 -37,60 -37,103l0 357 -196 0 0 -915 196 0 0 362c22,-33 51,-57 86,-74 35,-17 74,-26 118,-26z"/>
   <path id="8" class="fil1" d="M7029 4383l0 915 -194 0 0 -94c-20,32 -47,58 -82,77 -35,18 -74,28 -118,28 -55,0 -104,-14 -146,-42 -43,-29 -77,-68 -100,-119 -24,-50 -36,-108 -36,-174 0,-66 12,-124 36,-173 23,-50 57,-89 99,-115 42,-27 91,-41 147,-41 43,0 82,9 117,28 35,18 62,43 81,76l0 -366 196 0zm-337 776c46,0 81,-15 106,-47 24,-32 37,-77 37,-136 0,-58 -13,-103 -37,-135 -25,-31 -60,-46 -106,-46 -46,0 -82,15 -107,46 -25,30 -37,75 -37,133 0,59 12,104 37,137 25,32 61,48 107,48z"/>
   <path id="9" class="fil1" d="M7463 4645c95,0 165,23 211,68 45,45 68,115 68,209l0 376 -186 0 0 -94c-13,32 -34,58 -65,77 -30,18 -65,28 -106,28 -43,0 -83,-9 -118,-26 -35,-18 -62,-42 -83,-73 -20,-31 -30,-66 -30,-104 0,-47 12,-83 36,-110 23,-27 62,-46 114,-59 53,-12 125,-18 217,-18l34 0 0 -23c0,-38 -8,-65 -25,-81 -16,-15 -45,-23 -85,-23 -32,0 -66,6 -104,17 -38,11 -75,27 -109,47l-52 -131c36,-23 81,-42 134,-57 53,-15 103,-23 149,-23zm-35 529c38,0 69,-13 92,-39 23,-25 35,-58 35,-99l0 -22 -22 0c-70,0 -119,6 -147,17 -29,11 -43,32 -43,61 0,23 8,43 24,58 16,16 36,24 61,24z"/>
   <polygon id="10" class="fil1" points="7889,5298 7889,4383 8085,4383 8085,5298 "/>
   <path id="11" class="fil1" d="M8809 5017l-416 0c6,51 23,88 50,111 28,23 66,34 117,34 32,0 65,-5 98,-16 32,-11 62,-26 88,-46l52 131c-31,24 -69,43 -113,57 -45,14 -90,21 -135,21 -107,0 -191,-30 -253,-89 -62,-59 -93,-140 -93,-242 0,-65 13,-123 40,-173 27,-50 64,-89 112,-117 47,-29 101,-43 162,-43 89,0 160,29 212,87 53,58 79,137 79,237l0 48zm-286 -237c-37,0 -67,12 -89,36 -22,24 -35,58 -41,103l251 0c-3,-46 -14,-80 -34,-104 -21,-23 -50,-35 -87,-35z"/>
  </g>
 </g>
</svg>
